<svg width="32" height="32" viewBox="0 0 32 32" fill="none" xmlns="http://www.w3.org/2000/svg">
<g clip-path="url(#clip0_35_634)">
<path d="M16 8C14.9451 8 13.914 8.31279 13.0369 8.89883C12.1599 9.48486 11.4763 10.3178 11.0726 11.2924C10.6689 12.2669 10.5633 13.3392 10.7691 14.3738C10.9749 15.4084 11.4828 16.3587 12.2287 17.1046C12.9746 17.8505 13.9249 18.3584 14.9595 18.5642C15.994 18.77 17.0664 18.6644 18.0409 18.2607C19.0155 17.857 19.8484 17.1734 20.4345 16.2964C21.0205 15.4193 21.3333 14.3882 21.3333 13.3333C21.3333 11.9188 20.7714 10.5623 19.7712 9.5621C18.771 8.5619 17.4145 8 16 8ZM16 16C15.4725 16 14.957 15.8436 14.5184 15.5506C14.0799 15.2576 13.7381 14.8411 13.5363 14.3538C13.3344 13.8666 13.2816 13.3304 13.3845 12.8131C13.4874 12.2958 13.7414 11.8207 14.1143 11.4477C14.4873 11.0748 14.9624 10.8208 15.4797 10.7179C15.997 10.615 16.5332 10.6678 17.0205 10.8697C17.5077 11.0715 17.9242 11.4133 18.2172 11.8518C18.5102 12.2903 18.6666 12.8059 18.6666 13.3333C18.6666 14.0406 18.3857 14.7189 17.8856 15.219C17.3855 15.719 16.7072 16 16 16Z" fill="black" fill-opacity="0.87"/>
<path d="M16.0001 32C14.8773 32.0057 13.7695 31.7424 12.7695 31.2321C11.7694 30.7217 10.9062 29.9792 10.2521 29.0667C5.17072 22.0573 2.59338 16.788 2.59338 13.404C2.59338 9.84831 4.00587 6.43827 6.52011 3.92404C9.03434 1.4098 12.4444 -0.00268555 16.0001 -0.00268555C19.5557 -0.00268555 22.9658 1.4098 25.48 3.92404C27.9942 6.43827 29.4067 9.84831 29.4067 13.404C29.4067 16.788 26.8294 22.0573 21.7481 29.0667C21.0939 29.9792 20.2307 30.7217 19.2306 31.2321C18.2306 31.7424 17.1228 32.0057 16.0001 32ZM16.0001 2.90798C13.2166 2.91116 10.5481 4.01828 8.57988 5.98648C6.61169 7.95467 5.50456 10.6232 5.50138 13.4066C5.50138 16.0867 8.02538 21.0427 12.6067 27.3613C12.9956 27.897 13.5059 28.333 14.0957 28.6337C14.6855 28.9343 15.3381 29.091 16.0001 29.091C16.6621 29.091 17.3146 28.9343 17.9044 28.6337C18.4942 28.333 19.0045 27.897 19.3934 27.3613C23.9747 21.0427 26.4987 16.0867 26.4987 13.4066C26.4955 10.6232 25.3884 7.95467 23.4202 5.98648C21.452 4.01828 18.7835 2.91116 16.0001 2.90798Z" fill="black" fill-opacity="0.87"/>
</g>
<defs>
<clipPath id="clip0_35_634">
<rect width="32" height="32" fill="white"/>
</clipPath>
</defs>
</svg>
